<svg xmlns="http://www.w3.org/2000/svg" width="208.326" height="198.587" viewBox="0 0 208.326 198.587">
  <g id="Layer_1" data-name="Layer 1" transform="translate(-4.045 0)">
    <path id="Path_5915" data-name="Path 5915" d="M102.672,95.549l-.393,104.212-31.793-.1-.046,14.006A15.9,15.9,0,0,0,86.285,229.6l15.9.051,91.865.3A15.9,15.9,0,0,0,209.994,214.1l.49-134.114-91.865-.3A15.9,15.9,0,0,0,102.672,95.549Z" transform="translate(-38.111 -42.854)" fill="#83b8e0"/>
    <path id="Path_5916" data-name="Path 5916" d="M0,0H31.793V14.006A15.9,15.9,0,0,1,0,14.006Z" transform="matrix(1, 0.003, -0.003, 1, 32.391, 156.787)" fill="#83b8e0"/>
    <ellipse id="Ellipse_25" data-name="Ellipse 25" cx="9.097" cy="15.762" rx="9.097" ry="15.762" transform="translate(22.15 155.261)" fill="none" stroke="#18a34a" stroke-linecap="round" stroke-linejoin="round" stroke-width="1" opacity="0.318"/>
    <path id="Path_5917" data-name="Path 5917" d="M50.441,362.21c-1.294-2.986-.314-4.817-.314-6.934,0-4.451,1.488-9.494,4.16-12.656a24.443,24.443,0,0,1,1.137,6.989C55.424,354.06,53.113,359.039,50.441,362.21Z" transform="translate(-26.996 -184.248)" fill="#18a34a"/>
    <ellipse id="Ellipse_26" data-name="Ellipse 26" cx="9.097" cy="15.762" rx="9.097" ry="15.762" transform="translate(8.154 149.631)" fill="#fff"/>
    <path id="Path_5918" data-name="Path 5918" d="M77.321,353.432c0,1.757.716,3.162-.259,5.547a19.576,19.576,0,0,1-7.322-14.69,25.645,25.645,0,0,1,.883-6.009c4.179,3.3,6.7,9.388,6.7,15.152Z" transform="translate(-37.735 -181.914)" fill="#18a34a"/>
    <ellipse id="Ellipse_27" data-name="Ellipse 27" cx="9.097" cy="15.762" rx="9.097" ry="15.762" transform="translate(33.632 145.702)" fill="#fff"/>
    <path id="Path_5919" data-name="Path 5919" d="M61.722,376.589V352.95m0,9.259L65.406,358m-3.684,9.24,5.311-6.069m-5.311,11.251,5.482-6.268m-5.482-3.934-4.465-5.108m4.465,10.137-5.482-6.268m5.482,11.45-5.482-6.268" transform="translate(-30.475 -189.803)" fill="none" stroke="#18a34a" stroke-linecap="round" stroke-linejoin="round" stroke-width="1" opacity="0.318"/>
    <ellipse id="Ellipse_28" data-name="Ellipse 28" cx="9.097" cy="15.762" rx="9.097" ry="15.762" transform="translate(33.632 145.702)" fill="none" stroke="#83b8e0" stroke-miterlimit="10" stroke-width="1"/>
    <path id="Path_5920" data-name="Path 5920" d="M86.562,332.27v33.258m0-24,4.461-5.1m-4.461,10.128,5.482-6.268m-5.482,11.45,5.482-6.268m-5.482-3.934-4.47-5.108m4.47,10.137L81.08,340.3m5.482,11.45-5.482-6.268" transform="translate(-43.833 -178.682)" fill="none" stroke="#83b8e0" stroke-linecap="round" stroke-linejoin="round" stroke-width="1"/>
    <ellipse id="Ellipse_29" data-name="Ellipse 29" cx="9.097" cy="15.762" rx="9.097" ry="15.762" transform="translate(8.154 149.631)" fill="none" stroke="#ffcd52" stroke-linecap="round" stroke-linejoin="round" stroke-width="1" opacity="0.318"/>
    <path id="Path_5921" data-name="Path 5921" d="M31.442,340.77V370.1m0-20.07,4.461-5.1m-4.461,10.128,5.482-6.268m-5.482,11.45,5.482-6.268m-5.482-3.934-4.465-5.108m4.465,10.137L25.96,348.8m5.482,11.454-5.482-6.273" transform="translate(-14.191 -183.253)" fill="none" stroke="#ffcd52" stroke-linecap="round" stroke-linejoin="round" stroke-width="1" opacity="0.318"/>
    <rect id="Rectangle_3176" data-name="Rectangle 3176" width="49.215" height="36.794" rx="3" transform="translate(44.061 102.247)" fill="none" stroke="#83b8e0" stroke-miterlimit="10" stroke-width="1"/>
    <rect id="Rectangle_3177" data-name="Rectangle 3177" width="44.805" height="32.084" rx="3" transform="translate(46.261 104.6)" fill="#83b8e0"/>
    <rect id="Rectangle_3178" data-name="Rectangle 3178" width="13.488" height="27.328" rx="3" transform="translate(74.647 106.879)" fill="#c1e3f7"/>
    <rect id="Rectangle_3179" data-name="Rectangle 3179" width="21.887" height="9.356" rx="3" transform="translate(50.065 124.855)" fill="#f1f5f9"/>
    <rect id="Rectangle_3180" data-name="Rectangle 3180" width="21.887" height="3.37" rx="1" transform="translate(50.065 106.879)" fill="#f1f5f9"/>
    <rect id="Rectangle_3181" data-name="Rectangle 3181" width="8.685" height="8.685" rx="3.66" transform="translate(50.467 113.253)" fill="#f1f5f9"/>
    <rect id="Rectangle_3182" data-name="Rectangle 3182" width="8.685" height="8.685" rx="3.66" transform="translate(62.559 113.253)" fill="#f1f5f9"/>
    <path id="Path_5938" data-name="Path 5938" d="M1.387,0H43.418A1.387,1.387,0,0,1,44.8,1.387V30.7a1.387,1.387,0,0,1-1.387,1.387H1.387A1.387,1.387,0,0,1,0,30.7V1.387A1.387,1.387,0,0,1,1.387,0Z" transform="translate(150.699 23.833)" fill="#83b8e0"/>
    <rect id="Rectangle_3185" data-name="Rectangle 3185" width="13.488" height="27.328" rx="3" transform="translate(179.085 26.112)" fill="#f1f5f9"/>
    <rect id="Rectangle_3186" data-name="Rectangle 3186" width="21.887" height="9.356" rx="3" transform="translate(154.503 44.084)" fill="#c1e3f7"/>
    <rect id="Rectangle_3187" data-name="Rectangle 3187" width="21.887" height="3.37" rx="1" transform="translate(154.503 26.112)" fill="#f1f5f9"/>
    <rect id="Rectangle_3188" data-name="Rectangle 3188" width="8.685" height="8.685" rx="3.66" transform="translate(154.905 32.482)" fill="#f1f5f9"/>
    <rect id="Rectangle_3189" data-name="Rectangle 3189" width="8.685" height="8.685" rx="3.66" transform="translate(166.993 32.482)" fill="#f1f5f9"/>
    <path id="Path_5924" data-name="Path 5924" d="M212.624,229.358c9.308-1.344,7.334-1,11.485-4.249,1.715-3.351.5-8.632.588-8.581.145.085.912-106.661.912-106.661l31.8.106.042-14.01A15.9,15.9,0,0,0,241.6,80.017l-15.9-.051-91.865-.3a15.9,15.9,0,0,0-15.947,15.869l-.037,10.083s-.216,102.058-2.008,113.192-17.911,10.545-17.911,10.545S185.783,233.233,212.624,229.358Z" transform="translate(-52.898 -42.843)" fill="#f1f5f9"/>
    <path id="Path_5925" data-name="Path 5925" d="M.014,0H31.793V14.006A15.9,15.9,0,0,1,0,14.006V0Z" transform="matrix(-1, -0.003, 0.003, -1, 204.514, 67.151)" fill="#83b8e0"/>
    <circle id="Ellipse_30" data-name="Ellipse 30" cx="28.603" cy="28.603" r="28.603" transform="translate(117.275 99.603)" fill="#489ee0"/>
    <rect id="Rectangle_3190" data-name="Rectangle 3190" width="35.523" height="28.063" rx="7" transform="translate(82.404 149.869) rotate(1.81)" fill="#83b8e0"/>
    <rect id="Rectangle_3191" data-name="Rectangle 3191" width="35.523" height="28.063" rx="7" transform="translate(76.86 61.349) rotate(1.81)" fill="#83b8e0"/>
    <path id="Path_5927" data-name="Path 5927" d="M199.372,197.5l-39.082-1.544m38.962,12.517-38.971-.938m42.1,10.7-35.033-.051m37.418-78.141,42.725,1.687M204.6,151.134l42.475,1.683m-35.236,8.824,35.731,1.308" transform="translate(-86.424 -75.308)" fill="none" stroke="#83b8e0" stroke-linecap="round" stroke-linejoin="round" stroke-width="2"/>
    <path id="Path_5928" data-name="Path 5928" d="M443.031,174.11a36.387,36.387,0,0,1,.559,3.647c.139,1.216.222,2.436.3,3.656s.1,2.445.092,3.67a35.219,35.219,0,0,1-.162,3.7,35.283,35.283,0,0,1-.555-3.647c-.143-1.22-.226-2.441-.3-3.661s-.1-2.445-.1-3.67S442.93,175.34,443.031,174.11Z" transform="translate(-238.389 -93.63)" fill="#83b8e0"/>
    <path id="Path_5929" data-name="Path 5929" d="M440.443,188.921a36.6,36.6,0,0,1-3.647.559c-1.22.139-2.441.222-3.661.3s-2.445.106-3.67.1a36.439,36.439,0,0,1-3.7-.162,36.4,36.4,0,0,1,3.647-.559c1.216-.139,2.436-.222,3.656-.3s2.445-.1,3.7-.1S439.208,188.8,440.443,188.921Zm-16.52,8.436a16.9,16.9,0,0,1,.49,2.45c.111.818.194,1.636.236,2.459s.055,1.65.032,2.478a16.913,16.913,0,0,1-.226,2.487,16.916,16.916,0,0,1-.495-2.45c-.111-.818-.194-1.641-.236-2.464s-.051-1.646-.028-2.473a16.8,16.8,0,0,1,.227-2.487Z" transform="translate(-228.072 -101.507)" fill="#83b8e0"/>
    <path id="Path_5930" data-name="Path 5930" d="M214.138,216.137a17.432,17.432,0,0,1-2.45.495c-.818.111-1.636.19-2.459.236s-1.65.051-2.478.028a16.917,16.917,0,0,1-2.487-.227,16.9,16.9,0,0,1,2.45-.49c.818-.111,1.641-.194,2.464-.236s1.646-.055,2.473-.032a18.148,18.148,0,0,1,2.487.227ZM24.07,215c.254,1.216.421,2.431.555,3.647s.226,2.441.3,3.661.1,2.445.1,3.67a36.442,36.442,0,0,1-.166,3.7c-.254-1.211-.421-2.427-.555-3.642s-.226-2.441-.3-3.661-.1-2.445-.092-3.67a35.224,35.224,0,0,1,.162-3.7Z" transform="translate(-13.087 -115.619)" fill="#83b8e0"/>
    <path id="Path_5931" data-name="Path 5931" d="M23.926,229.81a36.375,36.375,0,0,1-3.647.555c-1.216.139-2.436.226-3.661.3s-2.445.106-3.67.1a36.515,36.515,0,0,1-3.7-.162,36.392,36.392,0,0,1,3.647-.559c1.216-.139,2.436-.222,3.661-.3s2.445-.106,3.67-.1A36.524,36.524,0,0,1,23.926,229.81Zm.98,8.052a16.9,16.9,0,0,1,.49,2.45c.116.818.194,1.641.236,2.464s.055,1.646.032,2.473a16.8,16.8,0,0,1-.226,2.487,17.565,17.565,0,0,1-.495-2.45c-.111-.818-.19-1.641-.231-2.464s-.055-1.646-.032-2.473a16.858,16.858,0,0,1,.226-2.487Z" transform="translate(-5.205 -123.495)" fill="#83b8e0"/>
    <path id="Path_5932" data-name="Path 5932" d="M42.889,119.04a17.349,17.349,0,0,1-2.445.49c-.823.111-1.641.194-2.464.236s-1.646.055-2.473.032a16.8,16.8,0,0,1-2.487-.226,16.145,16.145,0,0,1,2.445-.495c.823-.111,1.641-.194,2.464-.236s1.646-.046,2.478-.046A16.8,16.8,0,0,1,42.889,119.04ZM131.985,0c.254,1.211.421,2.427.555,3.647s.226,2.436.3,3.661.1,2.445.1,3.67-.037,2.45-.162,3.7a36.4,36.4,0,0,1-.559-3.647c-.139-1.216-.227-2.436-.3-3.661s-.1-2.445-.092-3.67a36.515,36.515,0,0,1,.162-3.7Z" transform="translate(-17.988 0)" fill="#83b8e0"/>
    <path id="Path_5933" data-name="Path 5933" d="M246.756,14.81c-1.211.254-2.427.421-3.647.555s-2.436.226-3.656.3-2.445.1-3.675.1a36.516,36.516,0,0,1-3.7-.166c1.211-.254,2.427-.421,3.647-.555s2.441-.226,3.661-.3,2.445-.1,3.67-.092A35.131,35.131,0,0,1,246.756,14.81Zm1,8.043a17.425,17.425,0,0,1,.495,2.45c.111.818.19,1.636.236,2.459s.051,1.65.028,2.473a16.921,16.921,0,0,1-.227,2.491,16.9,16.9,0,0,1-.49-2.45c-.116-.818-.194-1.641-.236-2.464s-.055-1.646-.032-2.473a16.8,16.8,0,0,1,.226-2.487Z" transform="translate(-125.035 -7.876)" fill="#83b8e0"/>
    <path id="Path_5934" data-name="Path 5934" d="M265.753,42.224a17.566,17.566,0,0,1-2.45.495c-.818.111-1.641.19-2.464.236s-1.646.051-2.473.028a16.8,16.8,0,0,1-2.487-.226,16.775,16.775,0,0,1,2.45-.49c.818-.116,1.636-.194,2.459-.236s1.65-.055,2.473-.032A16.922,16.922,0,0,1,265.753,42.224Z" transform="translate(-137.833 -22.578)" fill="#83b8e0"/>
    <circle id="Ellipse_31" data-name="Ellipse 31" cx="33.281" cy="33.281" r="33.281" transform="translate(112.43 94.717)" fill="#c1e3f7"/>
    <path id="Path_5937" data-name="Path 5937" d="M28.6,0A28.6,28.6,0,1,1,0,28.6,28.6,28.6,0,0,1,28.6,0Z" transform="translate(117.275 99.603)" fill="#f1f5f9"/>
    <path id="Path_5936" data-name="Path 5936" d="M254.493,263.318l26.56.37.074-5.547-25.377-.351a29.021,29.021,0,0,0-1.257,5.528Zm.786,11.052,26.888.37.079-5.547-27.905-.388a28.719,28.719,0,0,0,.938,5.565Zm3.471,7.821a27.572,27.572,0,0,0,1.9,2.639l21.069.3.185-5.547-24.79-.337A28.079,28.079,0,0,0,258.75,282.192Z" transform="translate(-137.005 -138.629)" fill="#83b8e0"/>
    <path id="Path_5922" data-name="Path 5922" d="M0,0H8.334V47.883H0Z" transform="translate(166.408 161.118) rotate(-38.51)" fill="#83b8e0"/>
    <path id="Path_5923" data-name="Path 5923" d="M388.792,368.565l.083.106,4.405,5.547c2.353-4.229.629-11.611.254-13.063l-5.085-6.365s3.707,9.3.342,13.775Z" transform="translate(-209.124 -190.792)" fill="#6ab4eb"/>
    <path id="Path_5926" data-name="Path 5926" d="M355.818,329.378a24.143,24.143,0,0,1-2.348,1.646l4.276,5.376,4.479-3.568-4.276-5.371A24.963,24.963,0,0,1,355.818,329.378Z" transform="translate(-190.314 -176.095)" fill="#6ab4eb"/>
  </g>
</svg>
